<svg width="83" height="53" viewBox="0 0 83 53" fill="none" xmlns="http://www.w3.org/2000/svg">
<g clip-path="url(#clip0_16_13)">
<rect width="83" height="53" fill="#E2E2E2"/>
<path d="M38.5735 51.2353C40.7525 51.2353 42.5189 49.4689 42.5189 47.2899C42.5189 45.1109 40.7525 43.3445 38.5735 43.3445C36.3945 43.3445 34.6281 45.1109 34.6281 47.2899C34.6281 49.4689 36.3945 51.2353 38.5735 51.2353Z" fill="#057606"/>
<path d="M66.1912 51.2353C68.3701 51.2353 70.1366 49.4689 70.1366 47.2899C70.1366 45.1109 68.3701 43.3445 66.1912 43.3445C64.0122 43.3445 62.2458 45.1109 62.2458 47.2899C62.2458 49.4689 64.0122 51.2353 66.1912 51.2353Z" fill="#057606"/>
<path d="M73.1942 10.8913C72.9171 10.5523 72.5679 10.2793 72.1721 10.0921C71.7763 9.90482 71.3438 9.80806 70.9059 9.80881H33.3816L32.6258 5.52068C32.5452 5.06392 32.3063 4.65015 31.9509 4.35207C31.5956 4.05399 31.1466 3.89065 30.6827 3.89075H22.792C22.2688 3.89075 21.767 4.09858 21.3971 4.46853C21.0271 4.83849 20.8193 5.34025 20.8193 5.86344C20.8193 6.38662 21.0271 6.88839 21.3971 7.25834C21.767 7.62829 22.2688 7.83612 22.792 7.83612H29.0281L34.6577 39.7419C34.7383 40.1987 34.8929 40.7185 35.2483 41.0165C35.6036 41.3146 36.137 41.3719 36.6008 41.3718H68.1639C68.6871 41.3718 69.1888 41.164 69.5588 40.794C69.9287 40.4241 70.1366 39.9223 70.1366 39.3991C70.1366 38.8759 69.9287 38.3742 69.5588 38.0042C69.1888 37.6343 68.6871 37.4264 68.1639 37.4264H38.2554L37.56 33.4811H67.3551C68.0392 33.4802 68.702 33.243 69.2313 32.8096C69.7607 32.3762 70.124 31.7732 70.2599 31.1027L73.8107 13.3486C73.8963 12.9189 73.8853 12.4756 73.7787 12.0506C73.6721 11.6257 73.4725 11.2297 73.1942 10.8913Z" fill="#057606"/>
<path d="M3 15.4234L24.5045 15.4234" stroke="#057606" stroke-width="4.6" stroke-miterlimit="16" stroke-linecap="round"/>
<path d="M8.54956 27.9099L24.5045 27.9099" stroke="#057606" stroke-width="4.6" stroke-miterlimit="16" stroke-linecap="round"/>
<path d="M14.0991 39.7027H24.5045" stroke="#057606" stroke-width="4.6" stroke-miterlimit="16" stroke-linecap="round"/>
</g>
<defs>
<clipPath id="clip0_16_13">
<rect width="83" height="53" fill="white"/>
</clipPath>
</defs>
</svg>
