<svg width="244" height="50" viewBox="0 0 244 50" fill="none" xmlns="http://www.w3.org/2000/svg">
<g clip-path="url(#clip0_9_2)">
<rect width="244" height="50" fill="white"/>
<path d="M92.192 34.288C90.512 34.288 89.064 33.928 87.848 33.208C86.648 32.472 85.72 31.456 85.064 30.16C84.424 28.848 84.104 27.336 84.104 25.624C84.104 23.912 84.424 22.4 85.064 21.088C85.72 19.776 86.648 18.752 87.848 18.016C89.064 17.28 90.512 16.912 92.192 16.912C94.224 16.912 95.888 17.416 97.184 18.424C98.48 19.432 99.288 20.856 99.608 22.696H96.08C95.872 21.8 95.432 21.104 94.76 20.608C94.104 20.096 93.24 19.84 92.168 19.84C91.176 19.84 90.32 20.08 89.6 20.56C88.896 21.024 88.352 21.688 87.968 22.552C87.584 23.4 87.392 24.424 87.392 25.624C87.392 26.808 87.584 27.832 87.968 28.696C88.352 29.56 88.896 30.224 89.6 30.688C90.32 31.152 91.176 31.384 92.168 31.384C93.24 31.384 94.104 31.152 94.76 30.688C95.416 30.208 95.848 29.544 96.056 28.696H99.608C99.288 30.44 98.48 31.808 97.184 32.8C95.888 33.792 94.224 34.288 92.192 34.288ZM110.127 34.288C108.495 34.288 107.055 33.92 105.807 33.184C104.559 32.448 103.583 31.432 102.879 30.136C102.175 28.824 101.823 27.312 101.823 25.6C101.823 23.888 102.175 22.384 102.879 21.088C103.583 19.776 104.559 18.752 105.807 18.016C107.055 17.28 108.495 16.912 110.127 16.912C111.775 16.912 113.223 17.28 114.471 18.016C115.719 18.752 116.687 19.776 117.375 21.088C118.079 22.384 118.431 23.888 118.431 25.6C118.431 27.312 118.079 28.824 117.375 30.136C116.687 31.432 115.719 32.448 114.471 33.184C113.223 33.92 111.775 34.288 110.127 34.288ZM110.127 31.384C111.151 31.384 112.031 31.152 112.767 30.688C113.519 30.208 114.103 29.536 114.519 28.672C114.935 27.808 115.143 26.784 115.143 25.6C115.143 24.4 114.935 23.376 114.519 22.528C114.103 21.664 113.519 21 112.767 20.536C112.031 20.072 111.151 19.84 110.127 19.84C109.119 19.84 108.239 20.072 107.487 20.536C106.735 21 106.151 21.664 105.735 22.528C105.319 23.376 105.111 24.4 105.111 25.6C105.111 26.784 105.319 27.808 105.735 28.672C106.151 29.536 106.735 30.208 107.487 30.688C108.239 31.152 109.119 31.384 110.127 31.384ZM121.195 34V17.2H125.059L130.195 27.688L135.283 17.2H139.147V34H135.907V22.72L131.467 31.648H128.899L124.435 22.72V34H121.195ZM142.453 34V17.2H148.741C150.101 17.2 151.229 17.432 152.125 17.896C153.021 18.36 153.685 18.984 154.117 19.768C154.549 20.552 154.765 21.448 154.765 22.456C154.765 23.384 154.557 24.24 154.141 25.024C153.725 25.808 153.069 26.448 152.173 26.944C151.277 27.424 150.133 27.664 148.741 27.664H145.693V34H142.453ZM145.693 25.048H148.549C149.589 25.048 150.333 24.816 150.781 24.352C151.245 23.872 151.477 23.24 151.477 22.456C151.477 21.624 151.245 20.984 150.781 20.536C150.333 20.072 149.589 19.84 148.549 19.84H145.693V25.048ZM157.195 34V17.2H163.459C164.819 17.2 165.939 17.432 166.819 17.896C167.699 18.36 168.355 18.984 168.787 19.768C169.219 20.536 169.435 21.392 169.435 22.336C169.435 23.232 169.227 24.072 168.811 24.856C168.395 25.624 167.739 26.248 166.843 26.728C165.963 27.192 164.827 27.424 163.435 27.424H160.435V34H157.195ZM165.907 34L162.451 26.608H165.955L169.603 34H165.907ZM160.435 25.072H163.267C164.243 25.072 164.963 24.832 165.427 24.352C165.891 23.872 166.123 23.24 166.123 22.456C166.123 21.672 165.891 21.056 165.427 20.608C164.979 20.144 164.259 19.912 163.267 19.912H160.435V25.072ZM171.208 34L177.352 17.2H181.024L187.144 34H183.712L179.176 20.896L174.616 34H171.208ZM173.92 30.184L174.784 27.664H183.328L184.168 30.184H173.92ZM195.135 34.288C193.919 34.288 192.831 34.08 191.871 33.664C190.927 33.248 190.175 32.64 189.615 31.84C189.071 31.04 188.791 30.072 188.775 28.936H192.207C192.223 29.432 192.351 29.88 192.591 30.28C192.831 30.68 193.159 31 193.575 31.24C194.007 31.464 194.519 31.576 195.111 31.576C195.623 31.576 196.063 31.496 196.431 31.336C196.815 31.16 197.111 30.92 197.319 30.616C197.527 30.312 197.631 29.952 197.631 29.536C197.631 29.056 197.511 28.656 197.271 28.336C197.047 28.016 196.727 27.744 196.311 27.52C195.911 27.296 195.439 27.096 194.895 26.92C194.367 26.728 193.807 26.528 193.215 26.32C191.887 25.888 190.871 25.312 190.167 24.592C189.479 23.872 189.135 22.92 189.135 21.736C189.135 20.728 189.375 19.864 189.855 19.144C190.351 18.424 191.031 17.872 191.895 17.488C192.759 17.104 193.743 16.912 194.847 16.912C195.983 16.912 196.975 17.112 197.823 17.512C198.687 17.896 199.367 18.456 199.863 19.192C200.375 19.928 200.639 20.792 200.655 21.784H197.199C197.183 21.416 197.071 21.072 196.863 20.752C196.671 20.416 196.399 20.152 196.047 19.96C195.695 19.752 195.279 19.648 194.799 19.648C194.383 19.632 193.999 19.696 193.647 19.84C193.311 19.984 193.039 20.2 192.831 20.488C192.639 20.76 192.543 21.104 192.543 21.52C192.543 21.92 192.639 22.256 192.831 22.528C193.039 22.8 193.319 23.04 193.671 23.248C194.023 23.44 194.439 23.624 194.919 23.8C195.399 23.96 195.919 24.128 196.479 24.304C197.311 24.592 198.079 24.936 198.783 25.336C199.487 25.72 200.047 26.224 200.463 26.848C200.879 27.472 201.087 28.296 201.087 29.32C201.087 30.2 200.855 31.016 200.391 31.768C199.927 32.52 199.255 33.128 198.375 33.592C197.511 34.056 196.431 34.288 195.135 34.288ZM202.972 34L209.14 17.2H210.292L216.388 34H215.236L209.692 18.592L204.1 34H202.972ZM205.588 28.672L205.948 27.76H213.436L213.796 28.672H205.588ZM219.262 34V17.2H224.158C225.454 17.2 226.51 17.408 227.326 17.824C228.158 18.224 228.766 18.776 229.15 19.48C229.534 20.184 229.726 20.992 229.726 21.904C229.726 22.816 229.534 23.632 229.15 24.352C228.766 25.056 228.166 25.608 227.35 26.008C226.534 26.408 225.47 26.608 224.158 26.608H220.342V34H219.262ZM220.342 25.672H224.182C225.67 25.672 226.774 25.352 227.494 24.712C228.23 24.072 228.598 23.136 228.598 21.904C228.598 20.672 228.23 19.736 227.494 19.096C226.774 18.456 225.67 18.136 224.182 18.136H220.342V25.672ZM232.481 34V17.2H237.377C238.673 17.2 239.729 17.408 240.545 17.824C241.377 18.224 241.985 18.776 242.369 19.48C242.753 20.184 242.945 20.992 242.945 21.904C242.945 22.816 242.753 23.632 242.369 24.352C241.985 25.056 241.385 25.608 240.569 26.008C239.753 26.408 238.689 26.608 237.377 26.608H233.561V34H232.481ZM233.561 25.672H237.401C238.889 25.672 239.993 25.352 240.713 24.712C241.449 24.072 241.817 23.136 241.817 21.904C241.817 20.672 241.449 19.736 240.713 19.096C239.993 18.456 238.889 18.136 237.401 18.136H233.561V25.672Z" fill="black"/>
<path d="M39.9595 49.3873C42.2234 49.3873 44.0586 47.5521 44.0586 45.2882C44.0586 43.0243 42.2234 41.1891 39.9595 41.1891C37.6956 41.1891 35.8604 43.0243 35.8604 45.2882C35.8604 47.5521 37.6956 49.3873 39.9595 49.3873Z" fill="#CC0002"/>
<path d="M68.6532 49.3873C70.917 49.3873 72.7523 47.5521 72.7523 45.2882C72.7523 43.0243 70.917 41.1891 68.6532 41.1891C66.3893 41.1891 64.5541 43.0243 64.5541 45.2882C64.5541 47.5521 66.3893 49.3873 68.6532 49.3873Z" fill="#CC0002"/>
<path d="M75.9291 7.47151C75.6411 7.11931 75.2784 6.83564 74.8671 6.64111C74.4559 6.44657 74.0065 6.34604 73.5516 6.34682H34.5653L33.7801 1.89162C33.6963 1.41706 33.4481 0.987177 33.0789 0.677481C32.7097 0.367785 32.2432 0.198084 31.7613 0.198185H23.5631C23.0195 0.198185 22.4982 0.414119 22.1138 0.798484C21.7295 1.18285 21.5135 1.70416 21.5135 2.24773C21.5135 2.7913 21.7295 3.31261 22.1138 3.69698C22.4982 4.08134 23.0195 4.29728 23.5631 4.29728H30.0422L35.8911 37.4461C35.9748 37.9207 36.1355 38.4607 36.5047 38.7704C36.8739 39.0801 37.428 39.1397 37.9099 39.1396H70.7027C71.2463 39.1396 71.7676 38.9236 72.152 38.5393C72.5363 38.1549 72.7523 37.6336 72.7523 37.09C72.7523 36.5464 72.5363 36.0251 72.152 35.6408C71.7676 35.2564 71.2463 35.0405 70.7027 35.0405H39.629L38.9065 30.9414H69.8624C70.5732 30.9405 71.2618 30.694 71.8118 30.2438C72.3617 29.7935 72.7392 29.167 72.8804 28.4704L76.5695 10.0245C76.6584 9.57807 76.6471 9.11748 76.5363 8.67599C76.4256 8.23449 76.2182 7.8231 75.9291 7.47151Z" fill="#CC0002"/>
<path d="M3 12.1802L25.3423 12.1802" stroke="#CC0002" stroke-width="4.6" stroke-miterlimit="16" stroke-linecap="round"/>
<path d="M8.76578 25.1531L25.3424 25.1531" stroke="#CC0002" stroke-width="4.6" stroke-miterlimit="16" stroke-linecap="round"/>
<path d="M14.5316 37.4053H25.3424" stroke="#CC0002" stroke-width="4.6" stroke-miterlimit="16" stroke-linecap="round"/>
</g>
<defs>
<clipPath id="clip0_9_2">
<rect width="244" height="50" fill="white"/>
</clipPath>
</defs>
</svg>
