<svg width="315" height="276" viewBox="0 0 315 276" fill="none" xmlns="http://www.w3.org/2000/svg">
<rect width="315" height="276" fill="white"/>
<path d="M86.192 200.288C84.512 200.288 83.064 199.928 81.848 199.208C80.648 198.472 79.72 197.456 79.064 196.16C78.424 194.848 78.104 193.336 78.104 191.624C78.104 189.912 78.424 188.4 79.064 187.088C79.72 185.776 80.648 184.752 81.848 184.016C83.064 183.28 84.512 182.912 86.192 182.912C88.224 182.912 89.888 183.416 91.184 184.424C92.48 185.432 93.288 186.856 93.608 188.696H90.08C89.872 187.8 89.432 187.104 88.76 186.608C88.104 186.096 87.24 185.84 86.168 185.84C85.176 185.84 84.32 186.08 83.6 186.56C82.896 187.024 82.352 187.688 81.968 188.552C81.584 189.4 81.392 190.424 81.392 191.624C81.392 192.808 81.584 193.832 81.968 194.696C82.352 195.56 82.896 196.224 83.6 196.688C84.32 197.152 85.176 197.384 86.168 197.384C87.24 197.384 88.104 197.152 88.76 196.688C89.416 196.208 89.848 195.544 90.056 194.696H93.608C93.288 196.44 92.48 197.808 91.184 198.8C89.888 199.792 88.224 200.288 86.192 200.288ZM104.127 200.288C102.495 200.288 101.055 199.92 99.8068 199.184C98.5588 198.448 97.5828 197.432 96.8788 196.136C96.1748 194.824 95.8228 193.312 95.8228 191.6C95.8228 189.888 96.1748 188.384 96.8788 187.088C97.5828 185.776 98.5588 184.752 99.8068 184.016C101.055 183.28 102.495 182.912 104.127 182.912C105.775 182.912 107.223 183.28 108.471 184.016C109.719 184.752 110.687 185.776 111.375 187.088C112.079 188.384 112.431 189.888 112.431 191.6C112.431 193.312 112.079 194.824 111.375 196.136C110.687 197.432 109.719 198.448 108.471 199.184C107.223 199.92 105.775 200.288 104.127 200.288ZM104.127 197.384C105.151 197.384 106.031 197.152 106.767 196.688C107.519 196.208 108.103 195.536 108.519 194.672C108.935 193.808 109.143 192.784 109.143 191.6C109.143 190.4 108.935 189.376 108.519 188.528C108.103 187.664 107.519 187 106.767 186.536C106.031 186.072 105.151 185.84 104.127 185.84C103.119 185.84 102.239 186.072 101.487 186.536C100.735 187 100.151 187.664 99.7348 188.528C99.3188 189.376 99.1108 190.4 99.1108 191.6C99.1108 192.784 99.3188 193.808 99.7348 194.672C100.151 195.536 100.735 196.208 101.487 196.688C102.239 197.152 103.119 197.384 104.127 197.384ZM115.195 200V183.2H119.059L124.195 193.688L129.283 183.2H133.147V200H129.907V188.72L125.467 197.648H122.899L118.435 188.72V200H115.195ZM136.453 200V183.2H142.741C144.101 183.2 145.229 183.432 146.125 183.896C147.021 184.36 147.685 184.984 148.117 185.768C148.549 186.552 148.765 187.448 148.765 188.456C148.765 189.384 148.557 190.24 148.141 191.024C147.725 191.808 147.069 192.448 146.173 192.944C145.277 193.424 144.133 193.664 142.741 193.664H139.693V200H136.453ZM139.693 191.048H142.549C143.589 191.048 144.333 190.816 144.781 190.352C145.245 189.872 145.477 189.24 145.477 188.456C145.477 187.624 145.245 186.984 144.781 186.536C144.333 186.072 143.589 185.84 142.549 185.84H139.693V191.048ZM151.195 200V183.2H157.459C158.819 183.2 159.939 183.432 160.819 183.896C161.699 184.36 162.355 184.984 162.787 185.768C163.219 186.536 163.435 187.392 163.435 188.336C163.435 189.232 163.227 190.072 162.811 190.856C162.395 191.624 161.739 192.248 160.843 192.728C159.963 193.192 158.827 193.424 157.435 193.424H154.435V200H151.195ZM159.907 200L156.451 192.608H159.955L163.603 200H159.907ZM154.435 191.072H157.267C158.243 191.072 158.963 190.832 159.427 190.352C159.891 189.872 160.123 189.24 160.123 188.456C160.123 187.672 159.891 187.056 159.427 186.608C158.979 186.144 158.259 185.912 157.267 185.912H154.435V191.072ZM165.208 200L171.352 183.2H175.024L181.144 200H177.712L173.176 186.896L168.616 200H165.208ZM167.92 196.184L168.784 193.664H177.328L178.168 196.184H167.92ZM189.135 200.288C187.919 200.288 186.831 200.08 185.871 199.664C184.927 199.248 184.175 198.64 183.615 197.84C183.071 197.04 182.791 196.072 182.775 194.936H186.207C186.223 195.432 186.351 195.88 186.591 196.28C186.831 196.68 187.159 197 187.575 197.24C188.007 197.464 188.519 197.576 189.111 197.576C189.623 197.576 190.063 197.496 190.431 197.336C190.815 197.16 191.111 196.92 191.319 196.616C191.527 196.312 191.631 195.952 191.631 195.536C191.631 195.056 191.511 194.656 191.271 194.336C191.047 194.016 190.727 193.744 190.311 193.52C189.911 193.296 189.439 193.096 188.895 192.92C188.367 192.728 187.807 192.528 187.215 192.32C185.887 191.888 184.871 191.312 184.167 190.592C183.479 189.872 183.135 188.92 183.135 187.736C183.135 186.728 183.375 185.864 183.855 185.144C184.351 184.424 185.031 183.872 185.895 183.488C186.759 183.104 187.743 182.912 188.847 182.912C189.983 182.912 190.975 183.112 191.823 183.512C192.687 183.896 193.367 184.456 193.863 185.192C194.375 185.928 194.639 186.792 194.655 187.784H191.199C191.183 187.416 191.071 187.072 190.863 186.752C190.671 186.416 190.399 186.152 190.047 185.96C189.695 185.752 189.279 185.648 188.799 185.648C188.383 185.632 187.999 185.696 187.647 185.84C187.311 185.984 187.039 186.2 186.831 186.488C186.639 186.76 186.543 187.104 186.543 187.52C186.543 187.92 186.639 188.256 186.831 188.528C187.039 188.8 187.319 189.04 187.671 189.248C188.023 189.44 188.439 189.624 188.919 189.8C189.399 189.96 189.919 190.128 190.479 190.304C191.311 190.592 192.079 190.936 192.783 191.336C193.487 191.72 194.047 192.224 194.463 192.848C194.879 193.472 195.087 194.296 195.087 195.32C195.087 196.2 194.855 197.016 194.391 197.768C193.927 198.52 193.255 199.128 192.375 199.592C191.511 200.056 190.431 200.288 189.135 200.288ZM196.972 200L203.14 183.2H204.292L210.388 200H209.236L203.692 184.592L198.1 200H196.972ZM199.588 194.672L199.948 193.76H207.436L207.796 194.672H199.588ZM213.262 200V183.2H218.158C219.454 183.2 220.51 183.408 221.326 183.824C222.158 184.224 222.766 184.776 223.15 185.48C223.534 186.184 223.726 186.992 223.726 187.904C223.726 188.816 223.534 189.632 223.15 190.352C222.766 191.056 222.166 191.608 221.35 192.008C220.534 192.408 219.47 192.608 218.158 192.608H214.342V200H213.262ZM214.342 191.672H218.182C219.67 191.672 220.774 191.352 221.494 190.712C222.23 190.072 222.598 189.136 222.598 187.904C222.598 186.672 222.23 185.736 221.494 185.096C220.774 184.456 219.67 184.136 218.182 184.136H214.342V191.672ZM226.481 200V183.2H231.377C232.673 183.2 233.729 183.408 234.545 183.824C235.377 184.224 235.985 184.776 236.369 185.48C236.753 186.184 236.945 186.992 236.945 187.904C236.945 188.816 236.753 189.632 236.369 190.352C235.985 191.056 235.385 191.608 234.569 192.008C233.753 192.408 232.689 192.608 231.377 192.608H227.561V200H226.481ZM227.561 191.672H231.401C232.889 191.672 233.993 191.352 234.713 190.712C235.449 190.072 235.817 189.136 235.817 187.904C235.817 186.672 235.449 185.736 234.713 185.096C233.993 184.456 232.889 184.136 231.401 184.136H227.561V191.672Z" fill="black"/>
<path d="M143.281 168.625C146.422 168.625 148.969 166.079 148.969 162.938C148.969 159.796 146.422 157.25 143.281 157.25C140.14 157.25 137.594 159.796 137.594 162.938C137.594 166.079 140.14 168.625 143.281 168.625Z" fill="#CC0002"/>
<path d="M183.094 168.625C186.235 168.625 188.781 166.079 188.781 162.938C188.781 159.796 186.235 157.25 183.094 157.25C179.953 157.25 177.406 159.796 177.406 162.938C177.406 166.079 179.953 168.625 183.094 168.625Z" fill="#CC0002"/>
<path d="M193.189 110.467C192.79 109.978 192.286 109.584 191.716 109.315C191.145 109.045 190.522 108.905 189.89 108.906H135.797L134.707 102.725C134.591 102.066 134.247 101.47 133.734 101.04C133.222 100.61 132.575 100.375 131.906 100.375H120.531C119.777 100.375 119.054 100.675 118.52 101.208C117.987 101.741 117.688 102.465 117.688 103.219C117.688 103.973 117.987 104.696 118.52 105.23C119.054 105.763 119.777 106.062 120.531 106.062H129.521L137.636 152.057C137.753 152.715 137.975 153.464 138.488 153.894C139 154.324 139.769 154.406 140.438 154.406H185.938C186.692 154.406 187.415 154.107 187.948 153.573C188.482 153.04 188.781 152.317 188.781 151.562C188.781 150.808 188.482 150.085 187.948 149.552C187.415 149.018 186.692 148.719 185.938 148.719H142.823L141.82 143.031H184.772C185.758 143.03 186.713 142.688 187.476 142.063C188.239 141.439 188.763 140.569 188.959 139.603L194.078 114.009C194.201 113.39 194.185 112.751 194.032 112.138C193.878 111.525 193.59 110.955 193.189 110.467Z" fill="#CC0002"/>
<path d="M92 117L123 117" stroke="#CC0002" stroke-width="4.6" stroke-miterlimit="16" stroke-linecap="round"/>
<path d="M100 135H123" stroke="#CC0002" stroke-width="4.6" stroke-miterlimit="16" stroke-linecap="round"/>
<path d="M108 152H123" stroke="#CC0002" stroke-width="4.6" stroke-miterlimit="16" stroke-linecap="round"/>
</svg>
